<svg width="32" height="21" viewBox="0 0 32 21" fill="none" xmlns="http://www.w3.org/2000/svg">
<path d="M21.3333 3.5C25.2611 3.5 28.4444 6.63359 28.4444 10.5C28.4444 14.3664 25.2611 17.5 21.3333 17.5H10.6667C6.73889 17.5 3.55556 14.3664 3.55556 10.5C3.55556 6.63359 6.73889 3.5 10.6667 3.5H21.3333ZM32 10.5C32 4.70312 27.2222 0 21.3333 0H10.6667C4.77778 0 0 4.70312 0 10.5C0 16.2969 4.77778 21 10.6667 21H21.3333C27.2222 21 32 16.2969 32 10.5ZM10.6667 15.75C12.0812 15.75 13.4377 15.1969 14.4379 14.2123C15.4381 13.2277 16 11.8924 16 10.5C16 9.10761 15.4381 7.77226 14.4379 6.78769C13.4377 5.80312 12.0812 5.25 10.6667 5.25C9.25218 5.25 7.89562 5.80312 6.89543 6.78769C5.89524 7.77226 5.33333 9.10761 5.33333 10.5C5.33333 11.8924 5.89524 13.2277 6.89543 14.2123C7.89562 15.1969 9.25218 15.75 10.6667 15.75Z" fill="#201849"/>
</svg>
