<svg width="32" height="21" viewBox="0 0 32 21" fill="none" xmlns="http://www.w3.org/2000/svg">
<path d="M10.6667 0C4.77778 0 0 4.70312 0 10.5C0 16.2969 4.77778 21 10.6667 21H21.3333C27.2222 21 32 16.2969 32 10.5C32 4.70312 27.2222 0 21.3333 0H10.6667ZM21.3333 5.25C22.7478 5.25 24.1044 5.80312 25.1046 6.78769C26.1048 7.77226 26.6667 9.10761 26.6667 10.5C26.6667 11.8924 26.1048 13.2277 25.1046 14.2123C24.1044 15.1969 22.7478 15.75 21.3333 15.75C19.9188 15.75 18.5623 15.1969 17.5621 14.2123C16.5619 13.2277 16 11.8924 16 10.5C16 9.10761 16.5619 7.77226 17.5621 6.78769C18.5623 5.80312 19.9188 5.25 21.3333 5.25Z" fill="#B51D44"/>
</svg>
