<svg width="24" height="21" viewBox="0 0 24 21" fill="none" xmlns="http://www.w3.org/2000/svg">
<path d="M24 9.75C24 15.1359 18.6284 19.5 12.0007 19.5C10.2617 19.5 8.61183 19.2 7.12129 18.6609C6.56351 19.0688 5.65419 19.6266 4.57612 20.0953C3.45119 20.5828 2.09658 21 0.751347 21C0.446677 21 0.174817 20.8172 0.0576367 20.5359C-0.059544 20.2547 0.00607722 19.9359 0.217002 19.7203L0.231064 19.7062C0.245126 19.6922 0.263875 19.6734 0.291998 19.6406C0.343558 19.5844 0.423241 19.4953 0.521672 19.3734C0.713849 19.1391 0.971646 18.7922 1.23413 18.3609C1.70285 17.5828 2.14814 16.5609 2.2372 15.4125C0.831029 13.8187 0.00139 11.8641 0.00139 9.75C0.00139 4.36406 5.37295 0 12.0007 0C18.6284 0 24 4.36406 24 9.75Z" fill="#201849"/>
</svg>
