<svg width="20" height="22" viewBox="0 0 20 22" fill="none" xmlns="http://www.w3.org/2000/svg">
<path d="M6.03571 0.760547L5.71429 1.375H1.42857C0.638393 1.375 0 1.98945 0 2.75C0 3.51055 0.638393 4.125 1.42857 4.125H18.5714C19.3616 4.125 20 3.51055 20 2.75C20 1.98945 19.3616 1.375 18.5714 1.375H14.2857L13.9643 0.760547C13.7232 0.292188 13.2277 0 12.6875 0H7.3125C6.77232 0 6.27679 0.292188 6.03571 0.760547ZM18.5714 5.5H1.42857L2.375 20.0664C2.44643 21.1535 3.38393 22 4.51339 22H15.4866C16.6161 22 17.5536 21.1535 17.625 20.0664L18.5714 5.5Z" fill="white"/>
</svg>
